<svg id="Layer_1" data-name="Layer 1" xmlns="http://www.w3.org/2000/svg" viewBox="0 0 1080 1080"><defs><style>.cls-1{fill:#f26630;}.cls-2{fill:#f4b72e;}</style></defs><path class="cls-1" d="M621.73,286.18A32.23,32.23,0,0,0,624,296.54c2.41,6.12,6.53,11.4,9.69,17.16,3.63,6.61,8.2,25.54-.81,30.51,16.18-7.66,34-21.54,26.66-38.19-3.49-8-9.89-14-12.76-22.35-4.42-12.82-1.65-25.77,3.31-38-.49,1.21-4.93,3.13-6,3.9C631.75,258.4,621.09,271.22,621.73,286.18Z"/><path class="cls-1" d="M397.35,299.92a32,32,0,0,0,2.25,10.36c2.4,6.12,6.52,11.39,9.69,17.16,3.62,6.61,8.2,25.53-.82,30.51,16.19-7.66,34-21.54,26.67-38.19-3.49-8-9.89-14-12.76-22.36-4.42-12.81-1.65-25.76,3.31-37.95-.49,1.21-4.94,3.13-6,3.89C407.36,272.14,396.7,285,397.35,299.92Z"/><path class="cls-1" d="M417.64,824.63c6.55-3,13.84-4.13,20.57-6.76,28.59-11.18,41.07-50.07,18.75-73.19-17.21-17.82-48.46-15-70.81-21.62a149.55,149.55,0,0,1-37.83-17A194.46,194.46,0,0,1,306,669.76c4.66,8.71,10.92,18.11,12.28,27,1.41,9.15-4.09,20.49-14.18,21.29-6.11.49-11.32-3.64-15.37-7.71-4.58-4.6-18.48-23.46-16.47-29.88,0,0-33.77,109.57,117.45,174.63h15.11C404.76,842.29,403.86,831,417.64,824.63Z"/><path class="cls-1" d="M766.79,741.86c-14-7-14.51-20.75-8.84-34,7.1-16.55,19.62-29.92,27.53-46,7.17-14.56,9.89-31.19,10.49-47.29,1.18-31.64-6.94-67.75-31.41-89.67a1.72,1.72,0,0,0-1.84.75c-.39,11.07,2.26,21.81.26,33-2.1,11.77-8.5,23.4-19.18,28.78s-25.72,2.45-31.37-8.09c-3.52-6.58-2.94-14.7-.52-21.77s6.51-13.41,9.94-20c12.78-24.64,16.18-53.82,10.23-80.86-6.35-28.88-23.39-48.26-44.1-68.29-4.26-4.13-18.27-12.73-20.11-18.41,6.12,18.93,10.46,40.43,8.62,60.33-1.1,11.83-4.85,24.64-16.53,30-20.79,9.5-33.13-7.76-35.78-26.91-1.5-10.79-.51-21.75-.89-32.64-.76-21.88-11.74-40.15-25.16-56.82-18.24-22.65-41.12-42.33-54.36-68.64-15.41-30.63-9.55-67.1,17.2-89.29a.48.48,0,0,1,.11-.09s-98.36,53.12-96.53,123.64c.62,23.95,6,47.37,9.24,71,3,21.69,8.79,50-9.26,66.37-29.29,26.56-54,9.16-58.59-43s-46.71-41.22-46.71-41.22,24.73,21.07,11.9,46.71-30.22,49.46-30.22,67.77,29.31,65,7.33,75.1-44-18.31-36.64-53.11c-.6,2.85-8,8.55-9.8,11a94.84,94.84,0,0,0-16,34.9c-6.1,26.38-3.23,54.06,3.69,80a272.52,272.52,0,0,0,10,30.11H418.86v-9.61H651.73v9.61h124s-16.55,27.36-53.44,50.86a149.77,149.77,0,0,1-37.84,17c-22.35,6.65-53.59,3.8-70.8,21.62-22.32,23.12-9.84,62,18.75,73.19,6.73,2.63,14,3.73,20.57,6.76,13.77,6.38,12.87,17.66,12.86,30.49h23c9.86-3.81,108.42-44.35,112.77-144.4C801.59,710.72,779.61,748.26,766.79,741.86Zm-257.71-141-10.42-32.06a12.25,12.25,0,0,0,7.87-15.45l-2.11-6.51L325.6,605,307,597.39l10.6-17.09L496.4,522.2l-2.11-6.51a12.26,12.26,0,0,0-15.45-7.87l-10.42-32.06,28-40.06,46.23,15.93,10.42,32.06-7,2.27,19.83,61,7-2.27,10.41,32.06Z"/><path class="cls-2" d="M665.12,617.76C633.07,571.51,678,512,678,512c-1.39,1.83-6.54,3.3-8.54,4.39C653.5,525.08,634,536.74,624,552.25c-10.32,15.88-15.47,28.62-33.57,37.11-12.31,5.77-24.48,5.15-32.75-4.25l-48.55,15.78-10.42-32.06a12.25,12.25,0,0,0,7.87-15.45l-2.11-6.51-98.15,31.89c1.32,8.09.77,16.4-2.93,24.25-7.8,16.56-29.55,25.77-46.73,19-6.82-2.67-12.51-7.65-16.88-13.45a59.06,59.06,0,0,1-4.68-6.7l-1.63.53c-4.94,14.32,11.16,33,22.17,52.76h63.27v-9.61H651.73v9.61h77.39c6.65-14.58,12.94-26,12.94-26S697.18,664,665.12,617.76Z"/><path class="cls-2" d="M526.23,446l16.46,5.67,10.42,32.06-7,2.27L561.41,533c6.14-16.43,12.46-37.12,11.21-65-2.74-61.37-46.71-86.1-46.71-86.1a67.44,67.44,0,0,1,5,15.54C534.06,413.62,531.8,430.35,526.23,446Z"/><path class="cls-2" d="M496.4,522.2l-2.11-6.51a12.24,12.24,0,0,0-9.61-8.29c-15.19,14.59-33.34,25.39-52.18,21.06-14.42-3.31-30-24.55-37.09-37.51-3.88,13.53-5.28,38.24,2.76,63.17Z"/><path class="cls-2" d="M714,710.92a154.26,154.26,0,0,1-29.54,12.14c-22.35,6.65-53.59,3.8-70.8,21.62-22.32,23.12-9.84,62,18.75,73.19,6.73,2.63,14,3.73,20.57,6.76,13.77,6.38,12.87,17.66,12.86,30.49h22.74c4.83-2.88,41.84-26.68,37.48-78.46C724.51,758.56,715.7,730.23,714,710.92Z"/><path class="cls-2" d="M417.64,824.63c6.55-3,13.84-4.13,20.57-6.76,28.59-11.18,41.07-50.07,18.75-73.19-17.21-17.82-48.46-15-70.81-21.62a156,156,0,0,1-25.36-10c-2.44,8.91-5.42,22.67-8,48.92-6,62,32.45,90,37.08,93.11h14.88C404.76,842.29,403.86,831,417.64,824.63Z"/><path class="cls-2" d="M517,734.32l-37.45-19.07v-9.71L517,686.42V699l-23.13,11.4L517,721.72Z"/><path class="cls-2" d="M550.54,671.25l-18.65,80H520l18.77-80Z"/><path class="cls-2" d="M553.56,686.43l37.46,19v9.75l-37.46,19.12V721.75l23.12-11.39L553.56,699Z"/></svg>